<svg width="22" height="22" viewBox="0 0 22 22" fill="none" xmlns="http://www.w3.org/2000/svg">
<g clip-path="url(#clip0_35_50)">
<path d="M1.52185 0.0934315C0.901302 0.305414 0.461745 0.698359 0.187669 1.2826L0.0221892 1.62901L0.00667545 8.70716C-0.0088383 16.5867 -0.0295233 16.0386 0.353149 16.6332C0.585855 16.9951 0.994384 17.326 1.40291 17.4915C1.63045 17.5794 1.81661 17.6001 2.48888 17.6208L3.29559 17.6414L3.31628 18.5566C3.33696 19.3787 3.35247 19.5027 3.47141 19.813C3.83857 20.785 4.53669 21.483 5.51923 21.8656L5.8657 22H12.6142H19.3627L19.7246 21.8863C20.6968 21.576 21.4674 20.8315 21.8655 19.813L22 19.4666V12.6676V5.86866L21.8655 5.52225C21.4829 4.53472 20.7899 3.8419 19.8126 3.47481C19.5023 3.35589 19.3782 3.34038 18.5559 3.3197L17.6406 3.29902L17.62 2.49245C17.5993 1.82031 17.5786 1.63418 17.4907 1.40669C17.3252 0.998236 16.9942 0.589781 16.6322 0.357119C16.0427 -0.0254841 16.5857 0.000366211 8.79263 0.000366211C2.27685 0.00553703 1.75973 0.0107079 1.52185 0.0934315ZM15.4067 8.78988V15.4079H8.78746H2.16826V8.82607C2.16826 5.20169 2.18377 2.2236 2.20446 2.20809C2.21997 2.1874 5.19861 2.17189 8.82366 2.17189H15.4067V8.78988ZM19.0162 5.54293C19.3471 5.62565 19.7091 5.98758 19.7919 6.31848C19.8798 6.66489 19.8798 18.6703 19.7919 19.0167C19.7091 19.3476 19.3471 19.7096 19.0162 19.7923C18.6697 19.8802 6.66207 19.8802 6.3156 19.7923C5.98464 19.7096 5.62265 19.3476 5.53991 19.0167C5.50371 18.8823 5.47786 18.5152 5.47786 18.205V17.6311H10.5457C14.0518 17.6311 15.6911 17.6156 15.8824 17.5742C16.6943 17.4036 17.3976 16.6953 17.5734 15.8835C17.6148 15.6922 17.6303 14.0998 17.6303 10.5478V5.48089H18.2043C18.5146 5.48089 18.8817 5.50674 19.0162 5.54293Z" fill="#615F5F"/>
</g>
<defs>
<clipPath id="clip0_35_50">
<rect width="22" height="22" fill="white"/>
</clipPath>
</defs>
</svg>
