<?xml version="1.0" standalone="no"?>
<!DOCTYPE svg PUBLIC "-//W3C//DTD SVG 20010904//EN"
 "http://www.w3.org/TR/2001/REC-SVG-20010904/DTD/svg10.dtd">
<svg version="1.0" xmlns="http://www.w3.org/2000/svg"
 width="512.000000pt" height="512.000000pt" viewBox="0 0 512.000000 512.000000"
 preserveAspectRatio="xMidYMid meet">

<g transform="translate(0.000000,512.000000) scale(0.100000,-0.100000)"
fill="#000000" stroke="none">
<path d="M725 4672 c-120 -41 -205 -117 -258 -230 l-32 -67 -3 -1369 c-3
-1524 -7 -1418 67 -1533 45 -70 124 -134 203 -166 44 -17 80 -21 210 -25 l156
-4 4 -177 c4 -159 7 -183 30 -243 71 -188 206 -323 396 -397 l67 -26 1305 0
1305 0 70 22 c188 60 337 204 414 401 l26 67 0 1315 0 1315 -26 67 c-74 191
-208 325 -397 396 -60 23 -84 26 -243 30 l-177 4 -4 156 c-4 130 -8 166 -25
210 -32 79 -96 158 -166 203 -114 74 -9 69 -1516 69 -1260 -1 -1360 -2 -1406
-18z m2685 -1682 l0 -1280 -1280 0 -1280 0 0 1273 c0 701 3 1277 7 1280 3 4
579 7 1280 7 l1273 0 0 -1280z m698 628 c64 -16 134 -86 150 -150 17 -67 17
-2389 0 -2456 -16 -64 -86 -134 -150 -150 -67 -17 -2389 -17 -2456 0 -64 16
-134 86 -150 150 -7 26 -12 97 -12 157 l0 111 980 0 c678 0 995 3 1032 11 157
33 293 170 327 327 8 37 11 345 11 1032 l0 980 111 0 c60 0 131 -5 157 -12z"/>
</g>
</svg>
