<svg width="22" height="22" viewBox="0 0 22 22" fill="none" xmlns="http://www.w3.org/2000/svg">
<g clip-path="url(#clip0_35_59)">
<path d="M2.68864 12.0247C4.17234 16.4412 5.4852 20.2229 5.60209 20.4285C6.1686 21.3762 7.10378 21.9305 8.23679 21.9931C9.136 22.0378 9.78343 21.8679 10.3949 21.4209C11.2581 20.7861 11.3481 20.5984 12.553 16.9776C13.2004 15.0286 13.731 13.6071 13.8119 13.5445C13.8928 13.482 15.3226 12.9902 16.9861 12.4359C18.6497 11.8906 20.1783 11.3452 20.3762 11.229C21.5361 10.5764 22.2105 9.05653 21.9408 7.74231C21.743 6.81252 21.2214 6.06154 20.4121 5.543C20.1513 5.37314 17.2109 4.36289 12.0045 2.63742C4.39715 0.134147 3.96553 4.35579e-05 3.32709 4.35579e-05C1.41176 -0.0088967 -5.06315e-07 1.40366 -5.06315e-07 3.31688C-5.06315e-07 3.96952 0.107905 4.30925 2.68864 12.0247ZM3.0843 2.93245C3.26414 2.80729 3.81266 2.97715 10.9884 5.33738C15.2327 6.73206 18.7756 7.92111 18.8745 7.96581C18.9734 8.01946 19.0723 8.14462 19.1083 8.24296C19.2431 8.65421 19.0813 8.72574 15.943 9.76281C14.2705 10.3171 12.7059 10.8714 12.4721 10.9966C11.9505 11.2737 11.3301 11.9264 11.0873 12.4628C10.9884 12.6773 10.4488 14.2151 9.89134 15.8869C9.33382 17.5587 8.83926 18.9802 8.78531 19.0339C8.74034 19.0964 8.58748 19.1501 8.4436 19.1501C8.30872 19.1501 8.16485 19.0964 8.11989 19.0339C7.97601 18.8193 2.89546 3.54039 2.88647 3.30794C2.87748 3.14702 2.94942 3.01291 3.0843 2.93245Z" fill="#615F5F"/>
</g>
<defs>
<clipPath id="clip0_35_59">
<rect width="22" height="22" fill="white" transform="matrix(0 -1 1 0 0 22)"/>
</clipPath>
</defs>
</svg>
