<?xml version="1.0" standalone="no"?>
<!DOCTYPE svg PUBLIC "-//W3C//DTD SVG 20010904//EN"
 "http://www.w3.org/TR/2001/REC-SVG-20010904/DTD/svg10.dtd">
<svg version="1.0" xmlns="http://www.w3.org/2000/svg"
 width="512.000000pt" height="512.000000pt" viewBox="0 0 512.000000 512.000000"
 preserveAspectRatio="xMidYMid meet">

<g transform="translate(0.000000,512.000000) scale(0.100000,-0.100000)"
fill="#000000" stroke="none">
<path d="M2437 3481 c-494 -165 -917 -311 -940 -324 -106 -63 -168 -167 -175
-293 -5 -100 14 -172 64 -240 71 -96 92 -106 497 -240 218 -72 377 -131 384
-140 7 -9 62 -168 124 -353 61 -185 122 -355 135 -377 73 -129 243 -204 390
-174 104 22 188 80 246 170 19 29 132 356 325 935 280 846 295 894 295 965 1
213 -157 370 -371 370 -73 0 -111 -12 -974 -299z m1017 -44 c14 -20 -5 -81
-269 -879 -156 -472 -289 -866 -294 -877 -6 -11 -20 -22 -31 -26 -46 -15 -54
3 -170 352 -62 186 -124 360 -138 386 -31 58 -104 127 -164 154 -24 11 -196
71 -383 133 -187 62 -346 117 -352 123 -7 5 -13 22 -13 38 0 15 6 31 13 36 24
16 1733 581 1759 582 18 1 33 -7 42 -22z"/>
</g>
</svg>
