<svg width="22" height="22" viewBox="0 0 22 22" fill="none" xmlns="http://www.w3.org/2000/svg">
<path d="M1.91997 0.0899277C1.02672 0.32785 0.329025 1.04161 0.0911756 1.94571C-0.0303919 2.40041 -0.0303919 19.6048 0.0911756 20.0595C0.329025 20.9742 1.032 21.6826 1.94112 21.9206C2.21596 21.9893 3.31536 21.9999 11.0058 21.9999C20.5462 21.9999 20.0177 22.0157 20.6361 21.7038C21.0114 21.5134 21.4765 21.0535 21.6773 20.6834C22.0209 20.0383 21.9997 20.6411 21.9997 11.0026C21.9997 3.3098 21.9892 2.21007 21.9205 1.93514C21.6826 1.02575 20.9744 0.322563 20.06 0.0846405C19.6107 -0.0316772 2.35867 -0.0263901 1.91997 0.0899277ZM19.9172 1.83468C19.9965 1.89284 20.1128 2.00916 20.1709 2.08847L20.2819 2.23122V11.0026V19.774L20.1709 19.9167C20.1128 19.996 19.9965 20.1124 19.9172 20.1705L19.7745 20.2815H11.0058H2.23711L2.0944 20.1705C2.01511 20.1124 1.89883 19.996 1.84069 19.9167C1.72969 19.774 1.72969 19.7634 1.71384 11.1454C1.70855 6.39749 1.71384 2.44271 1.72969 2.34754C1.76669 2.13605 1.98869 1.86641 2.20539 1.77124C2.33753 1.71308 3.91262 1.70251 11.0692 1.71308C19.7692 1.72366 19.7745 1.72366 19.9172 1.83468Z" fill="#615F5F"/>
<path d="M4.95918 5.20257C4.38306 5.52509 4.39891 6.37103 4.98561 6.66711C5.18117 6.77286 5.32388 6.77286 11.0058 6.77286C16.6878 6.77286 16.8305 6.77286 17.0261 6.66711C17.6233 6.36575 17.6233 5.48808 17.0261 5.18671C16.8305 5.08097 16.6878 5.08097 10.9953 5.08097H5.16532L4.95918 5.20257Z" fill="#615F5F"/>
<path d="M4.95918 10.2783C4.38306 10.6008 4.39891 11.4467 4.98561 11.7481C5.18646 11.8486 5.28689 11.8486 8.80706 11.838C12.3854 11.8221 12.4277 11.8221 12.5756 11.7111C13.0936 11.3251 13.0936 10.6801 12.5756 10.2941C12.4277 10.1831 12.3854 10.1831 8.79648 10.1725L5.16532 10.1567L4.95918 10.2783Z" fill="#615F5F"/>
<path d="M4.95918 15.3539C4.38306 15.6764 4.39891 16.5224 4.98561 16.8185C5.18646 16.9242 5.29746 16.9242 10.4984 16.9136C15.7945 16.8978 15.8104 16.8978 15.9584 16.7867C16.4764 16.4008 16.4764 15.7557 15.9584 15.3698C15.8104 15.2587 15.7945 15.2587 10.4879 15.2482L5.16532 15.2323L4.95918 15.3539Z" fill="#615F5F"/>
</svg>
