<svg width="22" height="22" viewBox="0 0 22 22" fill="none" xmlns="http://www.w3.org/2000/svg">
<g clip-path="url(#clip0_35_64)">
<path d="M5.89876 0.012125C3.31648 0.295971 1.11902 2.07 0.324083 4.50296C-0.0100935 5.52176 3.30663e-05 5.3545 3.30663e-05 11.001C3.30663e-05 15.7047 0.00509635 16.1609 0.0911722 16.6019C0.5975 19.2933 2.59243 21.3309 5.29116 21.9088C5.69116 21.9949 6.0861 22 11.0127 22C15.9392 22 16.3342 21.9949 16.7342 21.9088C18.0658 21.6199 19.1241 21.0572 20.0506 20.1246C20.8506 19.3288 21.3367 18.5584 21.6658 17.5649C22.0051 16.541 22 16.688 22 11.0314C22 5.50149 22 5.47615 21.7165 4.58406C21.0886 2.58701 19.519 0.990377 17.5392 0.326382C16.5468 -0.0081501 16.8608 0.012125 11.2152 0.00198746C8.38989 -0.00308037 5.99496 0.00198746 5.89876 0.012125ZM16.2886 2.22713C17.9443 2.54646 19.2658 3.79335 19.7316 5.47615C19.838 5.8715 19.843 5.97288 19.8633 8.8316C19.8734 10.4586 19.8684 11.7866 19.8582 11.7866C19.843 11.7866 18.8253 11.2139 17.5899 10.5144C16.3595 9.80986 15.3114 9.22696 15.2658 9.21682C15.2101 9.20162 14.3544 9.90616 12.6836 11.3558C11.2051 12.6331 10.1519 13.4998 10.1114 13.4846C10.076 13.4745 9.16964 12.8561 8.09622 12.111L6.15192 10.7628L5.9342 10.8946C5.81774 10.9655 4.92661 11.5433 3.94939 12.182L2.17724 13.3376L2.16206 9.78958C2.15193 6.81428 2.16205 6.16549 2.22788 5.79547C2.53674 4.00623 3.89876 2.60221 5.69623 2.2322C6.19749 2.13083 15.757 2.12576 16.2886 2.22713ZM18.8709 13.7279L19.8734 14.2956V14.9292C19.8734 15.2789 19.8481 15.7503 19.8228 15.9835C19.6304 17.4889 18.7241 18.7611 17.3722 19.415C16.476 19.8458 16.9468 19.8154 11.1646 19.8357C6.06585 19.8509 6.02028 19.8509 5.55445 19.7444C4.638 19.5316 3.73167 18.9639 3.12914 18.2238C2.7899 17.8082 2.43547 17.1037 2.30383 16.5816C2.13674 15.9227 2.12155 15.9531 2.74433 15.5476C3.04813 15.355 3.92408 14.7822 4.69876 14.2804L6.10635 13.363L8.14686 14.7772C9.2709 15.5577 10.2228 16.2065 10.2582 16.2217C10.2988 16.2369 11.3975 15.3246 12.9013 14.0219L15.4785 11.7968L16.6734 12.481C17.3367 12.8561 18.3241 13.4187 18.8709 13.7279Z" fill="#615F5F"/>
<path d="M6.39494 5.56232C6.09114 5.64342 5.76203 5.96782 5.67089 6.277C5.35697 7.32622 6.6076 8.12707 7.41772 7.39718C7.95443 6.91059 7.85823 6.01343 7.24051 5.66876C6.99241 5.53698 6.6481 5.49136 6.39494 5.56232Z" fill="#615F5F"/>
</g>
<defs>
<clipPath id="clip0_35_64">
<rect width="22" height="22" fill="white"/>
</clipPath>
</defs>
</svg>
