<?xml version="1.0" standalone="no"?>
<!DOCTYPE svg PUBLIC "-//W3C//DTD SVG 20010904//EN"
 "http://www.w3.org/TR/2001/REC-SVG-20010904/DTD/svg10.dtd">
<svg version="1.0" xmlns="http://www.w3.org/2000/svg"
 width="512.000000pt" height="512.000000pt" viewBox="0 0 512.000000 512.000000"
 preserveAspectRatio="xMidYMid meet">

<g transform="translate(0.000000,512.000000) scale(0.100000,-0.100000)"
fill="#615F5F" stroke="none">
<path d="M725 4672 c-120 -42 -205 -117 -258 -230 l-32 -67 0 -1816 0 -1815
37 -75 c46 -93 112 -158 206 -202 l67 -32 1816 0 1815 0 75 37 c93 46 158 112
202 206 l32 67 0 1815 0 1815 -32 67 c-44 94 -109 160 -202 206 l-75 37 -1800
2 c-1688 2 -1804 1 -1851 -15z m3540 -832 l0 -425 -1705 0 -1705 0 -3 415 c-1
228 0 421 3 428 3 10 350 12 1707 10 l1703 -3 0 -425z m-1065 -1920 l0 -1070
-1172 2 -1173 3 -3 1055 c-1 580 0 1061 3 1068 3 9 248 12 1175 12 l1170 0 0
-1070z m1065 0 l0 -1065 -317 -3 -318 -2 0 1070 0 1070 318 -2 317 -3 0 -1065z"/>
</g>
</svg>
