<svg width="22" height="22" viewBox="0 0 22 22" fill="none" xmlns="http://www.w3.org/2000/svg">
<path d="M8.42187 1.99805C8.31445 2.03242 8.14687 2.11406 8.04805 2.17852C7.63984 2.44492 1.12148 7.43789 0.928124 7.63125C0.0343738 8.5207 -0.24922 10.0117 0.244921 11.1934C0.382421 11.5242 0.666014 11.9539 0.932421 12.2246C1.2418 12.5469 8.01797 18.0898 8.26719 18.2273C9.11797 18.6914 10.3211 18.2832 10.7766 17.3766C10.9785 16.9684 11 16.7879 11 15.2711V13.8746L11.2492 13.9004C11.7562 13.9605 12.6113 14.1453 13.0754 14.2957C13.6941 14.4977 14.691 15.0004 15.2066 15.3699C16.3238 16.1734 17.2734 17.325 17.9738 18.7301C18.3047 19.4004 18.5367 19.7012 18.9062 19.9375C19.7098 20.4531 20.8656 20.3027 21.493 19.598C21.9098 19.1297 22.0387 18.627 21.9613 17.7504C21.6391 14.1625 20.1824 11.2363 17.7246 9.24687C16.0617 7.90625 13.75 6.94805 11.3781 6.61719L11 6.56562V5.09609C11 3.49766 10.9785 3.3043 10.7551 2.92187C10.3727 2.27305 9.7625 1.9293 8.98906 1.93789C8.78281 1.93789 8.5293 1.96797 8.42187 1.99805ZM9.08359 3.76406C9.14375 3.78555 9.15234 3.9918 9.15234 5.62461C9.15234 6.63008 9.17383 7.53242 9.19531 7.62266C9.2168 7.71719 9.28555 7.86758 9.3543 7.96211C9.54766 8.23711 9.71523 8.29727 10.4543 8.36602C11.4984 8.45625 12.3191 8.62383 13.2301 8.91602C16.6246 10.016 18.8633 12.3449 19.7441 15.6965C19.9246 16.384 20.1008 17.3895 20.1352 17.9566C20.1609 18.3348 20.1566 18.3777 20.0879 18.4078C19.9289 18.468 19.8473 18.382 19.6066 17.9051C18.8934 16.4785 17.9137 15.2195 16.7922 14.2828C15.1035 12.8691 12.8176 12.057 10.4414 12.0227C9.92578 12.0184 9.84414 12.027 9.68086 12.1086C9.45312 12.2289 9.25977 12.4652 9.19961 12.7016C9.16953 12.8176 9.15234 13.5438 9.15234 14.734C9.15234 15.7523 9.13945 16.5859 9.12227 16.5859C9.10078 16.5859 8.40898 16.0316 7.58398 15.3484C6.75469 14.6695 5.23359 13.4277 4.20664 12.5813C3.17969 11.7391 2.27305 10.9828 2.2 10.8969C1.96797 10.6348 1.87773 10.4113 1.85625 10.0504C1.82187 9.46172 1.97656 9.11367 2.44922 8.73555C2.69414 8.54219 8.98906 3.74258 9.01055 3.73828C9.01484 3.73828 9.04492 3.75117 9.08359 3.76406Z" fill="#615F5F"/>
</svg>
