<?xml version="1.0" standalone="no"?>
<!DOCTYPE svg PUBLIC "-//W3C//DTD SVG 20010904//EN"
 "http://www.w3.org/TR/2001/REC-SVG-20010904/DTD/svg10.dtd">
<svg version="1.0" xmlns="http://www.w3.org/2000/svg"
 width="512.000000pt" height="512.000000pt" viewBox="0 0 512.000000 512.000000"
 preserveAspectRatio="xMidYMid meet">

<g transform="translate(0.000000,512.000000) scale(0.100000,-0.100000)"
fill="#000000" stroke="none">
<path d="M1960 4655 c-25 -8 -64 -27 -87 -42 -95 -62 -1612 -1224 -1657 -1269
-208 -207 -274 -554 -159 -829 32 -77 98 -177 160 -240 72 -75 1649 -1365
1707 -1397 198 -108 478 -13 584 198 47 95 52 137 52 490 l0 325 58 -6 c118
-14 317 -57 425 -92 144 -47 376 -164 496 -250 260 -187 481 -455 644 -782 77
-156 131 -226 217 -281 187 -120 456 -85 602 79 97 109 127 226 109 430 -75
835 -414 1516 -986 1979 -387 312 -925 535 -1477 612 l-88 12 0 342 c0 372 -5
417 -57 506 -89 151 -231 231 -411 229 -48 0 -107 -7 -132 -14z m154 -411 c14
-5 16 -53 16 -433 0 -234 5 -444 10 -465 5 -22 21 -57 37 -79 45 -64 84 -78
256 -94 243 -21 434 -60 646 -128 790 -256 1311 -798 1516 -1578 42 -160 83
-394 91 -526 6 -88 5 -98 -11 -105 -37 -14 -56 6 -112 117 -166 332 -394 625
-655 843 -393 329 -925 518 -1478 526 -120 1 -139 -1 -177 -20 -53 -28 -98
-83 -112 -138 -7 -27 -11 -196 -11 -473 0 -237 -3 -431 -7 -431 -5 0 -166 129
-358 288 -193 158 -547 447 -786 644 -239 196 -450 372 -467 392 -54 61 -75
113 -80 197 -8 137 28 218 138 306 57 45 1522 1162 1527 1163 1 0 8 -3 17 -6z"/>
</g>
</svg>
