<svg width="22" height="22" viewBox="0 0 22 22" fill="none" xmlns="http://www.w3.org/2000/svg">
<path d="M13.5781 1.99805C13.6855 2.03242 13.8531 2.11406 13.952 2.17852C14.3602 2.44492 20.8785 7.43789 21.0719 7.63125C21.9656 8.5207 22.2492 10.0117 21.7551 11.1934C21.6176 11.5242 21.334 11.9539 21.0676 12.2246C20.7582 12.5469 13.982 18.0898 13.7328 18.2273C12.882 18.6914 11.6789 18.2832 11.2234 17.3766C11.0215 16.9684 11 16.7879 11 15.2711V13.8746L10.7508 13.9004C10.2438 13.9605 9.38867 14.1453 8.92461 14.2957C8.30586 14.4977 7.30898 15.0004 6.79336 15.3699C5.67617 16.1734 4.72656 17.325 4.02617 18.7301C3.69531 19.4004 3.46328 19.7012 3.09375 19.9375C2.29023 20.4531 1.13438 20.3027 0.507032 19.598C0.0902347 19.1297 -0.0386716 18.627 0.0386722 17.7504C0.360938 14.1625 1.81758 11.2363 4.27539 9.24687C5.93828 7.90625 8.25 6.94805 10.6219 6.61719L11 6.56562V5.09609C11 3.49766 11.0215 3.3043 11.2449 2.92187C11.6273 2.27305 12.2375 1.9293 13.0109 1.93789C13.2172 1.93789 13.4707 1.96797 13.5781 1.99805ZM12.9164 3.76406C12.8563 3.78555 12.8477 3.9918 12.8477 5.62461C12.8477 6.63008 12.8262 7.53242 12.8047 7.62266C12.7832 7.71719 12.7145 7.86758 12.6457 7.96211C12.4523 8.23711 12.2848 8.29727 11.5457 8.36602C10.5016 8.45625 9.68086 8.62383 8.76992 8.91602C5.37539 10.016 3.13672 12.3449 2.25586 15.6965C2.07539 16.384 1.89922 17.3895 1.86484 17.9566C1.83906 18.3348 1.84336 18.3777 1.91211 18.4078C2.07109 18.468 2.15273 18.382 2.39336 17.9051C3.10664 16.4785 4.08633 15.2195 5.20781 14.2828C6.89648 12.8691 9.18242 12.057 11.5586 12.0227C12.0742 12.0184 12.1559 12.027 12.3191 12.1086C12.5469 12.2289 12.7402 12.4652 12.8004 12.7016C12.8305 12.8176 12.8477 13.5438 12.8477 14.734C12.8477 15.7523 12.8605 16.5859 12.8777 16.5859C12.8992 16.5859 13.591 16.0316 14.416 15.3484C15.2453 14.6695 16.7664 13.4277 17.7934 12.5813C18.8203 11.7391 19.727 10.9828 19.8 10.8969C20.032 10.6348 20.1223 10.4113 20.1438 10.0504C20.1781 9.46172 20.0234 9.11367 19.5508 8.73555C19.3059 8.54219 13.0109 3.74258 12.9895 3.73828C12.9852 3.73828 12.9551 3.75117 12.9164 3.76406Z" fill="#615F5F"/>
</svg>
