<?xml version="1.0" standalone="no"?>
<!DOCTYPE svg PUBLIC "-//W3C//DTD SVG 20010904//EN"
 "http://www.w3.org/TR/2001/REC-SVG-20010904/DTD/svg10.dtd">
<svg version="1.0" xmlns="http://www.w3.org/2000/svg"
 width="512.000000pt" height="512.000000pt" viewBox="0 0 512.000000 512.000000"
 preserveAspectRatio="xMidYMid meet">

<g transform="translate(0.000000,512.000000) scale(0.100000,-0.100000)"
fill="#615F5F" stroke="none">
<path d="M444 4837 c-74 -28 -138 -93 -162 -166 -9 -24 -12 -188 -12 -558 0
-464 2 -529 16 -559 24 -50 68 -77 133 -82 66 -4 111 20 145 78 20 34 21 52
24 508 l3 472 689 0 690 0 0 -905 0 -905 -577 0 -577 0 126 128 c70 70 132
140 137 155 28 73 4 152 -62 201 -42 31 -123 28 -174 -7 -21 -14 -156 -145
-300 -289 -288 -291 -296 -301 -273 -390 10 -37 49 -81 283 -316 150 -151 289
-282 309 -293 48 -24 91 -24 142 1 52 26 77 61 84 116 8 74 -3 92 -139 229
-71 72 -129 134 -129 138 0 4 259 7 575 7 l575 0 0 -905 0 -905 -690 0 -689 0
-3 473 c-3 455 -4 473 -24 507 -34 58 -79 82 -145 78 -65 -5 -109 -32 -133
-82 -15 -32 -16 -90 -14 -573 3 -600 0 -572 75 -646 76 -77 10 -72 933 -72
923 0 857 -5 933 72 78 77 71 -16 77 1161 3 578 3 1526 0 2105 -6 1176 1 1083
-77 1160 -76 77 -12 72 -923 74 -607 1 -823 -1 -846 -10z"/>
<path d="M3004 4837 c-74 -28 -138 -93 -163 -166 -16 -49 -16 -4173 0 -4222
27 -78 97 -146 174 -168 29 -9 254 -11 845 -9 899 3 837 -2 913 75 75 74 72
46 75 646 2 483 1 541 -14 573 -24 50 -68 77 -133 82 -70 5 -115 -22 -148 -88
-23 -44 -23 -47 -23 -507 l0 -463 -690 0 -690 0 0 905 0 905 577 0 577 0 -126
-127 c-69 -71 -131 -139 -138 -152 -20 -38 -15 -115 9 -155 24 -38 91 -76 134
-76 63 0 102 32 365 293 145 144 272 277 284 295 21 35 27 117 9 149 -17 32
-571 578 -599 590 -63 28 -155 -2 -193 -63 -24 -40 -29 -116 -9 -155 7 -13 69
-81 138 -151 l127 -128 -578 0 -577 0 0 905 0 905 690 0 690 0 0 -463 c0 -460
0 -463 23 -507 33 -66 78 -93 148 -88 65 5 109 32 133 82 15 32 16 90 14 573
-3 600 0 572 -75 646 -76 77 -12 72 -923 74 -607 1 -823 -1 -846 -10z"/>
</g>
</svg>
