<?xml version="1.0" standalone="no"?>
<!DOCTYPE svg PUBLIC "-//W3C//DTD SVG 20010904//EN"
 "http://www.w3.org/TR/2001/REC-SVG-20010904/DTD/svg10.dtd">
<svg version="1.0" xmlns="http://www.w3.org/2000/svg"
 width="512.000000pt" height="512.000000pt" viewBox="0 0 512.000000 512.000000"
 preserveAspectRatio="xMidYMid meet">

<g transform="translate(0.000000,512.000000) scale(0.100000,-0.100000)"
fill="#615F5F" stroke="none">
<path d="M1337 4674 c-81 -19 -202 -85 -270 -145 -75 -67 -150 -181 -184 -282
l-28 -82 0 -1605 0 -1605 28 -82 c54 -161 169 -295 317 -373 142 -73 73 -70
1357 -70 789 0 1169 3 1205 11 81 16 225 91 290 149 112 100 184 238 208 395
7 47 10 436 8 1170 l-3 1100 -22 40 c-32 60 -1338 1360 -1385 1380 -33 13
-130 15 -750 14 -578 -1 -724 -3 -771 -15z m1223 -756 c0 -403 5 -443 71 -578
56 -114 169 -228 279 -282 129 -64 161 -68 568 -68 l362 0 0 -984 0 -984 -28
-53 c-20 -39 -41 -62 -77 -84 l-48 -30 -1127 0 -1127 0 -48 30 c-36 22 -57 45
-77 84 l-28 53 0 1537 0 1537 26 53 c28 56 79 98 136 111 18 4 277 8 576 9
l542 1 0 -352z m970 -501 c0 -5 -87 -7 -192 -5 -175 3 -197 5 -233 25 -102 54
-115 92 -115 335 l0 193 270 -270 c149 -148 270 -274 270 -278z"/>
<path d="M1620 3394 c-141 -61 -168 -258 -50 -357 52 -45 86 -49 372 -45 l266
3 44 30 c138 97 118 306 -34 370 -54 22 -546 22 -598 -1z"/>
<path d="M1611 2534 c-90 -45 -134 -140 -110 -238 16 -67 85 -138 151 -154 34
-9 282 -12 911 -12 981 0 936 -3 1005 76 96 109 68 264 -59 328 l-53 26 -896
0 -896 0 -53 -26z"/>
<path d="M1648 1698 c-21 -5 -58 -28 -82 -50 -113 -98 -89 -275 45 -342 l53
-26 896 0 896 0 53 26 c127 64 155 219 59 328 -69 80 -23 76 -1012 75 -538 -1
-885 -5 -908 -11z"/>
</g>
</svg>
